# xmcd CD database file
#
# Track frame offsets:
#	150
#	10333
#	24159
#	36677
#	49999
#	63600
#	75959
#	88561
#	102651
#	116183
#	131306
#	146064
#	160507
#	174389
#	188533
#	201321
#	214431
#	227550
#	242157
#	254949
#	269630
#	284035
#
# Disc length: 3968 seconds
#
# Revision: 0
# Processed by: cddbd v1.5.2PL0 Copyright (c) Steve Scherf et al.
# Submitted via: CDex 1.51
#
DISCID=4f0f7e16
DTITLE=Ambrose and His Orchestra - Happy Days Are Here Again
DYEAR=1935
DGENRE=Jazz
TTITLE0=We're The Tops On Saturday Night
TTITLE1=You've Got Me Crying Again
TTITLE2='Leven Thirty Saturday Night
TTITLE3=The Object Of My Affection
TTITLE4=Shoo The Hoodoo Away
TTITLE5=Little By Little
TTITLE6=Who Cares
TTITLE7=Exactly Like You
TTITLE8=I'm Just Wearing Out My Heart For You
TTITLE9=Till Tomorrow
TTITLE10=What Good Am I Without You
TTITLE11=B'Wanga
TTITLE12=South American Joe
TTITLE13=You Want Lovin' And I Want Love
TTITLE14=High And Low
TTITLE15=The Show Is Over
TTITLE16=The Free And Easy
TTITLE17=Laughing At The Rain
TTITLE18=I'm On A Diet Of Love
TTITLE19=Makin' Whoopee
TTITLE20=Hurry Home
TTITLE21=Happy Days Are Here Again
EXTD=YEAR: 1935
EXTT0=
EXTT1=
EXTT2=
EXTT3=
EXTT4=
EXTT5=
EXTT6=
EXTT7=
EXTT8=
EXTT9=
EXTT10=
EXTT11=
EXTT12=
EXTT13=
EXTT14=
EXTT15=
EXTT16=
EXTT17=
EXTT18=
EXTT19=
EXTT20=
EXTT21=
PLAYORDER=
